<svg xmlns="http://www.w3.org/2000/svg" style="border: 0 !important; clip: rect(0 0 0 0) !important; height: 1px !important; margin: -1px !important; overflow: hidden !important; padding: 0 !important; position: absolute !important; width: 1px !important;" class="root-svg-symbols-element">
  <defs>
      <linearGradient id="paint0_linear" x1="38.342" y1="32" x2=".001" y2="32" gradientUnits="userSpaceOnUse"><stop stop-color="#00FF43"/><stop offset="1" stop-color="#1F993F"/></linearGradient>
<clipPath id="clip0"><path fill="#fff" d="M0 0H25V25H0z"/></clipPath>
  </defs>
    <symbol id="add-icon" viewBox="0 0 20 20">
      <rect x="11" width="20" height="2" rx="1" transform="rotate(90 11 0)" fill="currentColor"/><rect x="20" y="11" width="20" height="2" rx="1" transform="rotate(-180 20 11)" fill="currentColor"/>
    </symbol>
    <symbol id="date-icon" viewBox="0 0 22 21">
      <path d="M7.89454 11.585C7.89454 11.322 7.68116 11.1088 7.41788 11.1088H5.75454C5.49156 11.1088 5.27814 11.322 5.27814 11.585V13.2482C5.27814 13.5116 5.49156 13.7248 5.75454 13.7248H7.41788C7.68116 13.7248 7.89454 13.5116 7.89454 13.2482V11.585Z" fill="#CDCDCD"/><path d="M12.0515 11.585C12.0515 11.322 11.8381 11.1088 11.5753 11.1088H9.91173C9.64875 11.1088 9.43533 11.322 9.43533 11.585V13.2482C9.43533 13.5116 9.64875 13.7248 9.91173 13.7248H11.5753C11.8381 13.7248 12.0515 13.5116 12.0515 13.2482V11.585Z" fill="#CDCDCD"/><path d="M16.2086 11.585C16.2086 11.322 15.9951 11.1088 15.7322 11.1088H14.0688C13.8055 11.1088 13.5922 11.322 13.5922 11.585V13.2482C13.5922 13.5116 13.8055 13.7248 14.0688 13.7248H15.7322C15.9951 13.7248 16.2086 13.5116 16.2086 13.2482V11.585Z" fill="#CDCDCD"/><path d="M7.89454 15.7425C7.89454 15.479 7.68116 15.266 7.41788 15.266H5.75454C5.49156 15.266 5.27814 15.479 5.27814 15.7425V17.4053C5.27814 17.6685 5.49156 17.8817 5.75454 17.8817H7.41788C7.68116 17.8817 7.89454 17.6685 7.89454 17.4053V15.7425Z" fill="#CDCDCD"/><path d="M12.0515 15.7425C12.0515 15.479 11.8381 15.266 11.5753 15.266H9.91173C9.64875 15.266 9.43533 15.479 9.43533 15.7425V17.4053C9.43533 17.6685 9.64875 17.8817 9.91173 17.8817H11.5753C11.8381 17.8817 12.0515 17.6685 12.0515 17.4053V15.7425Z" fill="#CDCDCD"/><path d="M16.2086 15.7425C16.2086 15.479 15.9951 15.266 15.7324 15.266H14.0688C13.8055 15.266 13.5922 15.479 13.5922 15.7425V17.4053C13.5922 17.6685 13.8055 17.8817 14.0688 17.8817H15.7324C15.9951 17.8817 16.2086 17.6685 16.2086 17.4053V15.7425Z" fill="#CDCDCD"/><path d="M19.1828 2.33818V4.87848C19.1828 6.02667 18.2513 6.95193 17.1033 6.95193H15.7915C14.6434 6.95193 13.6996 6.02667 13.6996 4.87848V2.32906H7.78701V4.87848C7.78701 6.02667 6.84325 6.95193 5.69532 6.95193H4.38327C3.2353 6.95193 2.30388 6.02667 2.30388 4.87848V2.33818C1.30054 2.36843 0.476074 3.19866 0.476074 4.21912V19.1065C0.476074 20.1461 1.31874 21 2.35839 21H19.1282C20.1663 21 21.0105 20.1444 21.0105 19.1065V4.21912C21.0105 3.19866 20.1861 2.36843 19.1828 2.33818ZM18.5735 18.1794C18.5735 18.6287 18.2092 18.9932 17.7597 18.9932H3.69104C3.24158 18.9932 2.87729 18.6287 2.87729 18.1794V10.4895C2.87729 10.0401 3.24153 9.67558 3.69104 9.67558H17.7597C18.2091 9.67558 18.5734 10.0401 18.5734 10.4895L18.5735 18.1794Z" fill="#CDCDCD"/><path d="M4.37874 5.59015H5.67629C6.07013 5.59015 6.38946 5.27129 6.38946 4.87745V0.71296C6.38946 0.319075 6.07013 0 5.67629 0H4.37874C3.98485 0 3.66556 0.319075 3.66556 0.71296V4.87745C3.66556 5.27129 3.98485 5.59015 4.37874 5.59015Z" fill="#CDCDCD"/><path d="M15.7751 5.59015H17.0726C17.4662 5.59015 17.7855 5.27129 17.7855 4.87745V0.71296C17.7856 0.319075 17.4662 0 17.0726 0H15.7751C15.3813 0 15.0619 0.319075 15.0619 0.71296V4.87745C15.0619 5.27129 15.3813 5.59015 15.7751 5.59015Z" fill="#CDCDCD"/>
    </symbol>
    <symbol id="fish-icon" viewBox="0 0 25 25">
      <path d="M17.3204 4.03752C16.6896 4.17938 16.2251 4.40031 15.8739 4.65583C14.3302 4.22739 12.5415 4.0549 10.8516 4.2207C12.5666 2.28354 14.9481 2.04807 17.3889 2.89948C17.9761 3.10433 17.8988 3.92091 17.3204 4.03752Z" fill="#A3E440"/><path d="M19.8259 14.6901C18.654 13.6674 17.3187 13.4334 15.8569 13.9948C14.4991 14.533 12.2786 15.1686 10.2537 15.4949C10.3997 15.2652 10.4009 15.2637 10.4109 15.2466C10.9571 14.2972 12.1549 11.8335 11.4838 9.46636C11.0882 8.07138 10.1219 6.94907 8.61161 6.13052C8.59926 6.1236 8.6015 6.12486 8.3564 5.99075C10.1993 5.29345 12.2934 5.19257 14.2293 5.50404C15.9812 5.78429 16.895 6.22626 17.7531 6.79337C21.9252 9.54743 23.1176 13.282 22.3487 16.4168C22.3486 16.4171 22.3485 16.4174 22.3484 16.4177C21.447 20.0884 17.6786 22.3868 17.5186 22.4829C17.4288 22.5368 17.3256 22.567 17.2101 22.567C17.0448 22.567 16.0072 22.5321 15.287 21.6838C14.6505 20.934 14.4693 19.8179 14.7487 18.3666C14.8195 17.9985 15.2168 17.7856 15.5659 17.9384C15.5756 17.9427 16.5543 18.3645 17.7477 18.3197C19.1815 18.2657 20.3087 17.5753 21.1024 16.2665C20.8977 15.9106 20.4685 15.2509 19.8259 14.6901Z" fill="#A3E440"/><path d="M2.43933 14.3017C2.95808 10.9216 4.43798 8.14981 7.0437 6.62158C8.41804 7.3736 7.94395 7.11439 8.04657 7.17037C9.26875 7.83193 10.0435 8.71425 10.3493 9.7928C10.8955 11.7192 9.86967 13.8243 9.39515 14.6519L8.73336 15.6929C6.7616 15.8727 4.71564 15.7641 2.98729 15.024C2.7817 14.9359 2.6354 14.8846 2.52468 14.7111C2.44707 14.5893 2.41684 14.4441 2.43933 14.3017ZM6.83064 11.209C7.17089 11.209 7.42539 10.9373 7.42539 10.6193C7.42539 10.3007 7.17042 10.0295 6.83064 10.0295C6.50494 10.0295 6.24088 10.2935 6.24088 10.6193C6.24088 10.945 6.50494 11.209 6.83064 11.209Z" fill="#A3E440"/>
    </symbol>
    <symbol id="slider-arrow" viewBox="0 0 30 64">
      <path d="M18.2867 64C24.2272 64 29.043 59.1842 29.043 53.2437L29.043 10.7563C29.043 4.81576 24.2272 -2.10504e-07 18.2867 -4.70173e-07L0.000952657 -1.26947e-06L0.00094986 64L18.2867 64Z" fill="#192A34"/><path d="M18.2867 64C24.2272 64 29.043 59.1842 29.043 53.2437L29.043 10.7563C29.043 4.81576 24.2272 -2.10504e-07 18.2867 -4.70173e-07L0.000952657 -1.26947e-06L0.00094986 64L18.2867 64Z" fill="url(#paint0_linear)"/><path d="M17.7489 23.6641L9.68164 32.0002L17.7489 40.3363" stroke="#192A34" stroke-width="2.151" stroke-linecap="round"/>
    </symbol>
    <symbol id="sub-icon" viewBox="0 0 20 2">
      <rect x="20" y="2" width="20" height="2" rx="1" transform="rotate(-180 20 2)" fill="currentColor"/>
    </symbol>
    <symbol id="wifi-icon" viewBox="0 0 25 25">
      <g clip-path="url(#clip0)" fill="#A3E440"><path d="M14.5034 21.7683C15.6108 20.6611 15.6109 18.8686 14.5034 17.7612C13.396 16.6538 11.6037 16.6538 10.4963 17.7612C9.38898 18.8685 9.38886 20.661 10.4963 21.7683C11.6037 22.8757 13.396 22.8758 14.5034 21.7683Z"/><path d="M8.22786 15.5541C10.5831 13.1989 14.4154 13.1989 16.7707 15.5541C16.9472 15.7307 17.1787 15.819 17.4101 15.819C18.2084 15.819 18.6209 14.8466 18.0495 14.2753C14.989 11.2149 10.0094 11.2149 6.94895 14.2753C6.59579 14.6284 6.59579 15.201 6.94895 15.5542C7.30211 15.9073 7.87471 15.9073 8.22786 15.5541Z"/><path d="M21.3236 11.0003C16.458 6.13466 8.54092 6.13466 3.67527 11.0003C3.32211 11.3534 3.32211 11.926 3.67527 12.2792C4.02837 12.6324 4.60091 12.6323 4.95412 12.2792C9.11467 8.11868 15.8843 8.11868 20.0448 12.2792C20.3979 12.6324 20.9705 12.6323 21.3236 12.2792C21.6768 11.926 21.6768 11.3534 21.3236 11.0003Z"/><path d="M1.54421 8.80901C7.68756 2.66572 17.3121 2.66572 23.4554 8.80901C23.632 8.98559 23.8635 9.07391 24.0948 9.07391C24.8932 9.07391 25.3056 8.10149 24.7342 7.53022C17.8966 0.692429 7.10833 0.687184 0.265356 7.53016C-0.087801 7.88326 -0.087801 8.45586 0.265356 8.80901C0.618513 9.16217 1.19111 9.16217 1.54421 8.80901Z"/></g>
    </symbol></svg>