<svg xmlns="http://www.w3.org/2000/svg" style="border: 0 !important; clip: rect(0 0 0 0) !important; height: 1px !important; margin: -1px !important; overflow: hidden !important; padding: 0 !important; position: absolute !important; width: 1px !important;" class="root-svg-symbols-element">
  <defs>
      <clipPath id="clip0"><path fill="#fff" d="M0 0H29V29H0z"/></clipPath>
<clipPath id="clip0"><path fill="#fff" d="M0 0H30V30H0z"/></clipPath>
<linearGradient id="paint0_linear" x1="38.342" y1="32" x2=".001" y2="32" gradientUnits="userSpaceOnUse"><stop stop-color="#00FF43"/><stop offset="1" stop-color="#1F993F"/></linearGradient>
<clipPath id="clip0"><path fill="#fff" d="M0 0H25V25H0z"/></clipPath>
  </defs>
    <symbol id="add-icon" viewBox="0 0 20 20">
      <rect x="11" width="20" height="2" rx="1" transform="rotate(90 11 0)" fill="currentColor"/><rect x="20" y="11" width="20" height="2" rx="1" transform="rotate(-180 20 11)" fill="currentColor"/>
    </symbol>
    <symbol id="bbg-icon" viewBox="0 0 29 29">
      <g clip-path="url(#clip0)" fill="#A3E440"><path d="M15.1185 6.21976C13.9788 4.44013 18.7147 1.99051 15.7187 0.102783C15.0309 -0.327758 14.2738 0.704812 15.0017 1.16181C16.656 2.20122 12.3045 4.18518 14.09 6.97458C14.5457 7.68287 15.5732 6.93079 15.1185 6.21976Z"/><path d="M18.4534 6.22062C17.31 4.43551 22.0537 1.99365 19.0527 0.103644C18.6869 -0.126221 18.1821 0.0849451 18.0667 0.48721C17.7693 1.52434 19.6972 0.832008 18.0051 3.14845C17.0952 4.3931 16.594 5.68016 17.4236 6.97589C17.8856 7.68784 18.9022 6.92299 18.4534 6.22062Z"/><path d="M11.7672 6.22011C10.6233 4.43363 15.372 1.99496 12.3669 0.103132C11.6814 -0.328322 10.9211 0.704704 11.6499 1.16216C13.2923 2.19427 8.9627 4.20194 10.7382 6.97493C11.1957 7.68322 12.2205 6.93251 11.7672 6.22011Z"/><path d="M14.2655 15.3603C21.4392 15.3603 25.2119 13.531 25.2119 12.0168C25.2119 10.2691 20.4541 8.60117 14.4986 8.67734C8.53209 8.60072 3.78564 10.2736 3.78564 12.0168C3.78564 13.6318 7.99665 15.3603 14.2655 15.3603ZM14.4055 9.574C14.4274 9.574 14.4493 9.574 14.4717 9.57491V9.57537C14.4808 9.57537 14.4899 9.57491 14.499 9.57491C14.5086 9.57491 14.5173 9.57537 14.5264 9.57537V9.57491C14.5487 9.57445 14.5706 9.574 14.5925 9.574C19.1036 9.574 23.6699 10.3694 23.6699 11.8886C23.6699 13.8498 16.587 14.2493 14.5264 14.2028V14.2023C14.5264 14.2023 14.4726 14.2023 14.4721 14.2023V14.2028C12.3554 14.2511 5.32948 13.8356 5.32948 11.8886C5.32903 10.3689 9.89441 9.574 14.4055 9.574Z"/><path d="M7.9129 13.013L7.94939 10.7559C6.59345 11.1039 5.84229 11.5298 5.84229 11.8888C5.84229 12.245 6.58023 12.6668 7.9129 13.013Z"/><path d="M11.0387 10.2446C10.2757 10.3194 9.58931 10.4161 8.98135 10.5297L8.93848 13.2393C9.54598 13.3537 10.2338 13.4527 10.9981 13.5284L11.0387 10.2446Z"/><path d="M14.1262 10.0923C13.3987 10.0978 12.7132 10.1228 12.0692 10.1639L12.0264 13.6123C12.6694 13.6543 13.3554 13.6798 14.0828 13.6862L14.1262 10.0923Z"/><path d="M25.4583 12.9813C25.4565 12.9503 25.4483 12.9202 25.4447 12.8892C23.9077 15.3055 17.5667 15.9162 14.5251 15.8715V15.8706C14.5251 15.8706 14.4718 15.8706 14.4709 15.8706V15.8715C10.591 15.9285 4.93873 15.0688 3.55179 12.8892C3.54768 12.9202 3.53947 12.9503 3.53811 12.9813C2.35776 13.2394 1.83874 13.784 1.87158 14.7126C1.8994 15.4989 2.90324 16.1789 4.21037 16.5656C5.03041 18.6066 6.54962 20.2631 8.50575 21.3572L5.69036 27.9244C5.52206 28.3152 5.70358 28.77 6.09582 28.9373C6.19433 28.9793 6.2974 28.9998 6.39911 28.9998C6.6983 28.9998 6.9829 28.8247 7.10832 28.5328L9.90228 22.0154C12.5909 23.058 16.1752 23.1469 19.0951 22.0154L21.889 28.5328C22.014 28.8251 22.2986 28.9998 22.5982 28.9998C22.6999 28.9998 22.803 28.9793 22.9015 28.9373C23.2938 28.77 23.4757 28.3157 23.3075 27.9244L20.4916 21.3572C22.4477 20.2636 23.9665 18.6066 24.7874 16.5656C26.0941 16.1789 27.0975 15.4989 27.1262 14.7126C27.1572 13.784 26.6387 13.2394 25.4583 12.9813ZM3.16184 14.8581C3.13949 14.4357 3.20471 14.1895 3.58006 14.0303C3.63251 14.5498 3.73422 15.0487 3.86512 15.534C3.44278 15.3698 3.17598 15.1454 3.16184 14.8581ZM25.1309 15.534C25.2622 15.0487 25.3639 14.5493 25.4164 14.0303C25.7908 14.1895 25.8565 14.4357 25.8341 14.8581C25.8196 15.1454 25.5527 15.3698 25.1309 15.534Z"/><path d="M23.1535 11.8888C23.1535 11.5298 22.4023 11.1034 21.0464 10.7559L21.0824 13.013C22.4151 12.6668 23.1535 12.245 23.1535 11.8888Z"/><path d="M20.0559 13.2393L20.0134 10.5297C19.405 10.4166 18.7186 10.3194 17.9561 10.2446L17.9966 13.528C18.761 13.4527 19.4484 13.3542 20.0559 13.2393Z"/><path d="M16.9699 13.6123L16.9266 10.1639C16.2826 10.1228 15.5971 10.0978 14.8696 10.0923L14.9134 13.6858C15.6409 13.6798 16.3264 13.6543 16.9699 13.6123Z"/></g>
    </symbol>
    <symbol id="date-icon" viewBox="0 0 22 21">
      <path d="M7.89454 11.585C7.89454 11.322 7.68116 11.1088 7.41788 11.1088H5.75454C5.49156 11.1088 5.27814 11.322 5.27814 11.585V13.2482C5.27814 13.5116 5.49156 13.7248 5.75454 13.7248H7.41788C7.68116 13.7248 7.89454 13.5116 7.89454 13.2482V11.585Z" fill="#CDCDCD"/><path d="M12.0515 11.585C12.0515 11.322 11.8381 11.1088 11.5753 11.1088H9.91173C9.64875 11.1088 9.43533 11.322 9.43533 11.585V13.2482C9.43533 13.5116 9.64875 13.7248 9.91173 13.7248H11.5753C11.8381 13.7248 12.0515 13.5116 12.0515 13.2482V11.585Z" fill="#CDCDCD"/><path d="M16.2086 11.585C16.2086 11.322 15.9951 11.1088 15.7322 11.1088H14.0688C13.8055 11.1088 13.5922 11.322 13.5922 11.585V13.2482C13.5922 13.5116 13.8055 13.7248 14.0688 13.7248H15.7322C15.9951 13.7248 16.2086 13.5116 16.2086 13.2482V11.585Z" fill="#CDCDCD"/><path d="M7.89454 15.7425C7.89454 15.479 7.68116 15.266 7.41788 15.266H5.75454C5.49156 15.266 5.27814 15.479 5.27814 15.7425V17.4053C5.27814 17.6685 5.49156 17.8817 5.75454 17.8817H7.41788C7.68116 17.8817 7.89454 17.6685 7.89454 17.4053V15.7425Z" fill="#CDCDCD"/><path d="M12.0515 15.7425C12.0515 15.479 11.8381 15.266 11.5753 15.266H9.91173C9.64875 15.266 9.43533 15.479 9.43533 15.7425V17.4053C9.43533 17.6685 9.64875 17.8817 9.91173 17.8817H11.5753C11.8381 17.8817 12.0515 17.6685 12.0515 17.4053V15.7425Z" fill="#CDCDCD"/><path d="M16.2086 15.7425C16.2086 15.479 15.9951 15.266 15.7324 15.266H14.0688C13.8055 15.266 13.5922 15.479 13.5922 15.7425V17.4053C13.5922 17.6685 13.8055 17.8817 14.0688 17.8817H15.7324C15.9951 17.8817 16.2086 17.6685 16.2086 17.4053V15.7425Z" fill="#CDCDCD"/><path d="M19.1828 2.33818V4.87848C19.1828 6.02667 18.2513 6.95193 17.1033 6.95193H15.7915C14.6434 6.95193 13.6996 6.02667 13.6996 4.87848V2.32906H7.78701V4.87848C7.78701 6.02667 6.84325 6.95193 5.69532 6.95193H4.38327C3.2353 6.95193 2.30388 6.02667 2.30388 4.87848V2.33818C1.30054 2.36843 0.476074 3.19866 0.476074 4.21912V19.1065C0.476074 20.1461 1.31874 21 2.35839 21H19.1282C20.1663 21 21.0105 20.1444 21.0105 19.1065V4.21912C21.0105 3.19866 20.1861 2.36843 19.1828 2.33818ZM18.5735 18.1794C18.5735 18.6287 18.2092 18.9932 17.7597 18.9932H3.69104C3.24158 18.9932 2.87729 18.6287 2.87729 18.1794V10.4895C2.87729 10.0401 3.24153 9.67558 3.69104 9.67558H17.7597C18.2091 9.67558 18.5734 10.0401 18.5734 10.4895L18.5735 18.1794Z" fill="#CDCDCD"/><path d="M4.37874 5.59015H5.67629C6.07013 5.59015 6.38946 5.27129 6.38946 4.87745V0.71296C6.38946 0.319075 6.07013 0 5.67629 0H4.37874C3.98485 0 3.66556 0.319075 3.66556 0.71296V4.87745C3.66556 5.27129 3.98485 5.59015 4.37874 5.59015Z" fill="#CDCDCD"/><path d="M15.7751 5.59015H17.0726C17.4662 5.59015 17.7855 5.27129 17.7855 4.87745V0.71296C17.7856 0.319075 17.4662 0 17.0726 0H15.7751C15.3813 0 15.0619 0.319075 15.0619 0.71296V4.87745C15.0619 5.27129 15.3813 5.59015 15.7751 5.59015Z" fill="#CDCDCD"/>
    </symbol>
    <symbol id="feeback-arrow" viewBox="0 0 42 16">
      <path d="M41 7C41.5523 7 42 7.44772 42 8C42 8.55228 41.5523 9 41 9V7ZM0.292892 8.70711C-0.0976295 8.31658 -0.0976295 7.68342 0.292892 7.29289L6.65685 0.928932C7.04738 0.538408 7.68054 0.538408 8.07107 0.928932C8.46159 1.31946 8.46159 1.95262 8.07107 2.34315L2.41422 8L8.07107 13.6569C8.46159 14.0474 8.46159 14.6805 8.07107 15.0711C7.68054 15.4616 7.04738 15.4616 6.65685 15.0711L0.292892 8.70711ZM41 9L1 9V7L41 7V9Z" fill="#1E983E"/>
    </symbol>
    <symbol id="fish-icon" viewBox="0 0 25 25">
      <path d="M17.3204 4.03752C16.6896 4.17938 16.2251 4.40031 15.8739 4.65583C14.3302 4.22739 12.5415 4.0549 10.8516 4.2207C12.5666 2.28354 14.9481 2.04807 17.3889 2.89948C17.9761 3.10433 17.8988 3.92091 17.3204 4.03752Z" fill="#A3E440"/><path d="M19.8259 14.6901C18.654 13.6674 17.3187 13.4334 15.8569 13.9948C14.4991 14.533 12.2786 15.1686 10.2537 15.4949C10.3997 15.2652 10.4009 15.2637 10.4109 15.2466C10.9571 14.2972 12.1549 11.8335 11.4838 9.46636C11.0882 8.07138 10.1219 6.94907 8.61161 6.13052C8.59926 6.1236 8.6015 6.12486 8.3564 5.99075C10.1993 5.29345 12.2934 5.19257 14.2293 5.50404C15.9812 5.78429 16.895 6.22626 17.7531 6.79337C21.9252 9.54743 23.1176 13.282 22.3487 16.4168C22.3486 16.4171 22.3485 16.4174 22.3484 16.4177C21.447 20.0884 17.6786 22.3868 17.5186 22.4829C17.4288 22.5368 17.3256 22.567 17.2101 22.567C17.0448 22.567 16.0072 22.5321 15.287 21.6838C14.6505 20.934 14.4693 19.8179 14.7487 18.3666C14.8195 17.9985 15.2168 17.7856 15.5659 17.9384C15.5756 17.9427 16.5543 18.3645 17.7477 18.3197C19.1815 18.2657 20.3087 17.5753 21.1024 16.2665C20.8977 15.9106 20.4685 15.2509 19.8259 14.6901Z" fill="#A3E440"/><path d="M2.43933 14.3017C2.95808 10.9216 4.43798 8.14981 7.0437 6.62158C8.41804 7.3736 7.94395 7.11439 8.04657 7.17037C9.26875 7.83193 10.0435 8.71425 10.3493 9.7928C10.8955 11.7192 9.86967 13.8243 9.39515 14.6519L8.73336 15.6929C6.7616 15.8727 4.71564 15.7641 2.98729 15.024C2.7817 14.9359 2.6354 14.8846 2.52468 14.7111C2.44707 14.5893 2.41684 14.4441 2.43933 14.3017ZM6.83064 11.209C7.17089 11.209 7.42539 10.9373 7.42539 10.6193C7.42539 10.3007 7.17042 10.0295 6.83064 10.0295C6.50494 10.0295 6.24088 10.2935 6.24088 10.6193C6.24088 10.945 6.50494 11.209 6.83064 11.209Z" fill="#A3E440"/>
    </symbol>
    <symbol id="instagram-icon" viewBox="0 0 19 19">
      <path d="M13.3043 0H4.93805C2.21516 0 0 2.21516 0 4.93805V13.3045C0 16.0272 2.21516 18.2424 4.93805 18.2424H13.3045C16.0272 18.2424 18.2424 16.0272 18.2424 13.3045V4.93805C18.2424 2.21516 16.0272 0 13.3043 0V0ZM9.12119 14.1092C6.37075 14.1092 4.13318 11.8716 4.13318 9.12119C4.13318 6.37075 6.37075 4.13318 9.12119 4.13318C11.8716 4.13318 14.1092 6.37075 14.1092 9.12119C14.1092 11.8716 11.8716 14.1092 9.12119 14.1092ZM14.2285 5.30952C13.4157 5.30952 12.7546 4.64842 12.7546 3.83562C12.7546 3.02282 13.4157 2.36158 14.2285 2.36158C15.0413 2.36158 15.7025 3.02282 15.7025 3.83562C15.7025 4.64842 15.0413 5.30952 14.2285 5.30952Z" fill="#1F993F"/><path d="M9.12169 6.51562C7.68477 6.51562 6.51562 7.68467 6.51562 9.12169C6.51562 10.5586 7.68477 11.7277 9.12169 11.7277C10.5587 11.7277 11.7277 10.5586 11.7277 9.12169C11.7277 7.68467 10.5587 6.51562 9.12169 6.51562Z" fill="#1F993F"/>
    </symbol>
    <symbol id="menu-icon" viewBox="0 0 30 20">
      <path d="M28 10H8" stroke="#fff" stroke-width="3" stroke-linecap="round" stroke-linejoin="round"/><path d="M28 2H2" stroke="#fff" stroke-width="3" stroke-linecap="round" stroke-linejoin="round"/><path d="M28 18H2" stroke="#fff" stroke-width="3" stroke-linecap="round" stroke-linejoin="round"/>
    </symbol>
    <symbol id="phone-icon" viewBox="0 0 17 17">
      <path d="M10.3847 3.69578C11.1067 3.83663 11.7702 4.18971 12.2903 4.70982C12.8104 5.22993 13.1634 5.89341 13.3043 6.61534L10.3847 3.69578ZM10.3847 0.739258C11.8846 0.905885 13.2833 1.57756 14.3511 2.644C15.4189 3.71044 16.0923 5.10826 16.2608 6.60795L10.3847 0.739258ZM15.5217 12.5062V14.7236C15.5225 14.9295 15.4804 15.1332 15.3979 15.3218C15.3154 15.5104 15.1945 15.6797 15.0428 15.8189C14.8911 15.9581 14.712 16.064 14.517 16.13C14.322 16.1959 14.1154 16.2204 13.9104 16.2019C11.636 15.9547 9.45121 15.1775 7.53169 13.9327C5.74582 12.7979 4.23172 11.2838 3.09691 9.49795C1.84776 7.56971 1.07039 5.37434 0.827777 3.08969C0.809306 2.8853 0.833597 2.6793 0.899103 2.48481C0.964609 2.29031 1.06989 2.11159 1.20826 1.96002C1.34662 1.80845 1.51502 1.68735 1.70275 1.60443C1.89048 1.52151 2.09342 1.47858 2.29865 1.47839H4.51604C4.87474 1.47486 5.22249 1.60188 5.49447 1.83578C5.76645 2.06968 5.94409 2.3945 5.9943 2.74969C6.08789 3.45931 6.26146 4.15606 6.51169 4.82665C6.61114 5.0912 6.63266 5.37872 6.57371 5.65513C6.51476 5.93154 6.37781 6.18525 6.17908 6.38621L5.24039 7.32491C6.29258 9.17536 7.82472 10.7075 9.67517 11.7597L10.6139 10.821C10.8148 10.6223 11.0685 10.4853 11.345 10.4264C11.6214 10.3674 11.9089 10.3889 12.1734 10.4884C12.844 10.7386 13.5408 10.9122 14.2504 11.0058C14.6094 11.0564 14.9373 11.2373 15.1717 11.5139C15.4061 11.7906 15.5307 12.1437 15.5217 12.5062Z" fill="#72E240" stroke="#72E240" stroke-linecap="round" stroke-linejoin="round"/>
    </symbol>
    <symbol id="question-icon" viewBox="0 0 30 30">
      <g clip-path="url(#clip0)" fill="#E2E2E2"><path d="M30.0002 20.302C30.0002 16.5792 27.8645 13.2568 24.6659 11.6406C24.5666 18.7785 18.7795 24.5656 11.6416 24.6649C13.2577 27.8635 16.5802 29.9992 20.3029 29.9992C22.0484 29.9992 23.7458 29.5344 25.2372 28.6511L29.9579 29.9569L28.6521 25.2362C29.5353 23.7448 30.0002 22.0474 30.0002 20.302Z"/><path d="M22.9102 11.4551C22.9102 5.13863 17.7715 0 11.4551 0C5.13863 0 0 5.13863 0 11.4551C0 13.5136 0.547943 15.518 1.58844 17.2776L0.0421143 22.8678L5.63255 21.3217C7.3922 22.3622 9.39651 22.9102 11.4551 22.9102C17.7715 22.9102 22.9102 17.7715 22.9102 11.4551ZM9.69727 8.78906H7.93945C7.93945 6.85043 9.51645 5.27344 11.4551 5.27344C13.3937 5.27344 14.9707 6.85043 14.9707 8.78906C14.9707 9.77303 14.5541 10.7188 13.8274 11.3834L12.334 12.7503V14.1211H10.5762V11.9762L12.6407 10.0866C13.0096 9.74899 13.2129 9.28825 13.2129 8.78906C13.2129 7.81975 12.4244 7.03125 11.4551 7.03125C10.4858 7.03125 9.69727 7.81975 9.69727 8.78906ZM10.5762 16.7578C10.5762 16.2724 10.9697 15.8789 11.4551 15.8789C11.9405 15.8789 12.334 16.2724 12.334 16.7578C12.334 17.2432 11.9405 17.6367 11.4551 17.6367C10.9697 17.6367 10.5762 17.2432 10.5762 16.7578Z"/></g>
    </symbol>
    <symbol id="slider-arrow" viewBox="0 0 30 64">
      <path d="M18.2867 64C24.2272 64 29.043 59.1842 29.043 53.2437L29.043 10.7563C29.043 4.81576 24.2272 -2.10504e-07 18.2867 -4.70173e-07L0.000952657 -1.26947e-06L0.00094986 64L18.2867 64Z" fill="#192A34"/><path d="M18.2867 64C24.2272 64 29.043 59.1842 29.043 53.2437L29.043 10.7563C29.043 4.81576 24.2272 -2.10504e-07 18.2867 -4.70173e-07L0.000952657 -1.26947e-06L0.00094986 64L18.2867 64Z" fill="url(#paint0_linear)"/><path d="M17.7489 23.6641L9.68164 32.0002L17.7489 40.3363" stroke="#192A34" stroke-width="2.151" stroke-linecap="round"/>
    </symbol>
    <symbol id="sub-icon" viewBox="0 0 20 2">
      <rect x="20" y="2" width="20" height="2" rx="1" transform="rotate(-180 20 2)" fill="currentColor"/>
    </symbol>
    <symbol id="video-button" viewBox="0 0 74 74">
      <circle cx="37" cy="37" r="32.647" fill="#1F993F"/><path d="M47.1407 38.0402C48.1062 37.2404 48.1062 35.7596 47.1407 34.9598L35.0259 24.9242C33.7221 23.8442 31.75 24.7715 31.75 26.4644L31.75 46.5356C31.75 48.2285 33.7221 49.1558 35.0259 48.0758L47.1407 38.0402Z" fill="#fff"/>
    </symbol>
    <symbol id="vk-icon" viewBox="0 0 19 19">
      <path fill-rule="evenodd" clip-rule="evenodd" d="M5.75781 0C2.99639 0 0.757812 2.23857 0.757812 5V13.2424C0.757812 16.0038 2.99639 18.2424 5.75781 18.2424H14.0002C16.7617 18.2424 19.0002 16.0038 19.0002 13.2424V5C19.0002 2.23858 16.7617 0 14.0002 0H5.75781ZM14.1764 9.05508C14.0261 9.29968 13.9658 9.42142 14.1764 9.69505C14.1922 9.71749 14.272 9.79987 14.3927 9.92439C14.9025 10.4506 16.1416 11.7296 16.3607 12.4191C16.4791 12.8246 16.2733 13.0301 15.8672 13.0301H14.4425C14.0623 13.0301 13.8706 12.8148 13.4556 12.349C13.2792 12.1509 13.0623 11.9075 12.7735 11.6161C11.9265 10.7924 11.5638 10.6852 11.3531 10.6852C10.9672 10.6852 10.9681 10.7963 10.9772 11.8295C10.9788 12.0128 10.9807 12.2252 10.9807 12.4711C10.9807 12.8246 10.8699 13.0301 9.96263 13.0301C8.45323 13.0301 6.79398 12.1047 5.61579 10.397C3.84795 7.8952 3.36364 6.00152 3.36364 5.62066C3.36364 5.40511 3.44562 5.21244 3.85229 5.21244H5.27753C5.64293 5.21244 5.7803 5.37327 5.92092 5.77144C6.61752 7.82372 7.79301 9.61687 8.27732 9.61687C8.4592 9.61687 8.54119 9.53143 8.54119 9.06681V6.9464C8.5083 6.34225 8.29965 6.08107 8.14512 5.88763C8.04969 5.76817 7.97489 5.67454 7.97489 5.54192C7.97489 5.38277 8.11009 5.21188 8.33758 5.21188H10.5778C10.878 5.21188 10.9796 5.37551 10.9796 5.74185V8.59269C10.9796 8.89816 11.118 9.00538 11.2071 9.00538C11.3879 9.00538 11.541 8.89816 11.8722 8.56365C12.8983 7.406 13.6237 5.62011 13.6237 5.62011C13.7133 5.40455 13.8805 5.21188 14.2432 5.21188H15.6679C16.0985 5.21188 16.1875 5.43638 16.0985 5.74185L16.0974 5.7424C15.9182 6.58062 14.1792 9.05229 14.1764 9.05508Z" fill="#1F993F"/>
    </symbol>
    <symbol id="wifi-icon" viewBox="0 0 25 25">
      <g clip-path="url(#clip0)" fill="#A3E440"><path d="M14.5034 21.7683C15.6108 20.6611 15.6109 18.8686 14.5034 17.7612C13.396 16.6538 11.6037 16.6538 10.4963 17.7612C9.38898 18.8685 9.38886 20.661 10.4963 21.7683C11.6037 22.8757 13.396 22.8758 14.5034 21.7683Z"/><path d="M8.22786 15.5541C10.5831 13.1989 14.4154 13.1989 16.7707 15.5541C16.9472 15.7307 17.1787 15.819 17.4101 15.819C18.2084 15.819 18.6209 14.8466 18.0495 14.2753C14.989 11.2149 10.0094 11.2149 6.94895 14.2753C6.59579 14.6284 6.59579 15.201 6.94895 15.5542C7.30211 15.9073 7.87471 15.9073 8.22786 15.5541Z"/><path d="M21.3236 11.0003C16.458 6.13466 8.54092 6.13466 3.67527 11.0003C3.32211 11.3534 3.32211 11.926 3.67527 12.2792C4.02837 12.6324 4.60091 12.6323 4.95412 12.2792C9.11467 8.11868 15.8843 8.11868 20.0448 12.2792C20.3979 12.6324 20.9705 12.6323 21.3236 12.2792C21.6768 11.926 21.6768 11.3534 21.3236 11.0003Z"/><path d="M1.54421 8.80901C7.68756 2.66572 17.3121 2.66572 23.4554 8.80901C23.632 8.98559 23.8635 9.07391 24.0948 9.07391C24.8932 9.07391 25.3056 8.10149 24.7342 7.53022C17.8966 0.692429 7.10833 0.687184 0.265356 7.53016C-0.087801 7.88326 -0.087801 8.45586 0.265356 8.80901C0.618513 9.16217 1.19111 9.16217 1.54421 8.80901Z"/></g>
    </symbol></svg>