<svg width="29" height="29" viewBox="0 0 29 29" fill="none" xmlns="http://www.w3.org/2000/svg"><g clip-path="url(#clip0)" fill="#A3E440"><path d="M15.1185 6.21976C13.9788 4.44013 18.7147 1.99051 15.7187 0.102783C15.0309 -0.327758 14.2738 0.704812 15.0017 1.16181C16.656 2.20122 12.3045 4.18518 14.09 6.97458C14.5457 7.68287 15.5732 6.93079 15.1185 6.21976Z"/><path d="M18.4534 6.22062C17.31 4.43551 22.0537 1.99365 19.0527 0.103644C18.6869 -0.126221 18.1821 0.0849451 18.0667 0.48721C17.7693 1.52434 19.6972 0.832008 18.0051 3.14845C17.0952 4.3931 16.594 5.68016 17.4236 6.97589C17.8856 7.68784 18.9022 6.92299 18.4534 6.22062Z"/><path d="M11.7672 6.22011C10.6233 4.43363 15.372 1.99496 12.3669 0.103132C11.6814 -0.328322 10.9211 0.704704 11.6499 1.16216C13.2923 2.19427 8.9627 4.20194 10.7382 6.97493C11.1957 7.68322 12.2205 6.93251 11.7672 6.22011Z"/><path d="M14.2655 15.3603C21.4392 15.3603 25.2119 13.531 25.2119 12.0168C25.2119 10.2691 20.4541 8.60117 14.4986 8.67734C8.53209 8.60072 3.78564 10.2736 3.78564 12.0168C3.78564 13.6318 7.99665 15.3603 14.2655 15.3603ZM14.4055 9.574C14.4274 9.574 14.4493 9.574 14.4717 9.57491V9.57537C14.4808 9.57537 14.4899 9.57491 14.499 9.57491C14.5086 9.57491 14.5173 9.57537 14.5264 9.57537V9.57491C14.5487 9.57445 14.5706 9.574 14.5925 9.574C19.1036 9.574 23.6699 10.3694 23.6699 11.8886C23.6699 13.8498 16.587 14.2493 14.5264 14.2028V14.2023C14.5264 14.2023 14.4726 14.2023 14.4721 14.2023V14.2028C12.3554 14.2511 5.32948 13.8356 5.32948 11.8886C5.32903 10.3689 9.89441 9.574 14.4055 9.574Z"/><path d="M7.9129 13.013L7.94939 10.7559C6.59345 11.1039 5.84229 11.5298 5.84229 11.8888C5.84229 12.245 6.58023 12.6668 7.9129 13.013Z"/><path d="M11.0387 10.2446C10.2757 10.3194 9.58931 10.4161 8.98135 10.5297L8.93848 13.2393C9.54598 13.3537 10.2338 13.4527 10.9981 13.5284L11.0387 10.2446Z"/><path d="M14.1262 10.0923C13.3987 10.0978 12.7132 10.1228 12.0692 10.1639L12.0264 13.6123C12.6694 13.6543 13.3554 13.6798 14.0828 13.6862L14.1262 10.0923Z"/><path d="M25.4583 12.9813C25.4565 12.9503 25.4483 12.9202 25.4447 12.8892C23.9077 15.3055 17.5667 15.9162 14.5251 15.8715V15.8706C14.5251 15.8706 14.4718 15.8706 14.4709 15.8706V15.8715C10.591 15.9285 4.93873 15.0688 3.55179 12.8892C3.54768 12.9202 3.53947 12.9503 3.53811 12.9813C2.35776 13.2394 1.83874 13.784 1.87158 14.7126C1.8994 15.4989 2.90324 16.1789 4.21037 16.5656C5.03041 18.6066 6.54962 20.2631 8.50575 21.3572L5.69036 27.9244C5.52206 28.3152 5.70358 28.77 6.09582 28.9373C6.19433 28.9793 6.2974 28.9998 6.39911 28.9998C6.6983 28.9998 6.9829 28.8247 7.10832 28.5328L9.90228 22.0154C12.5909 23.058 16.1752 23.1469 19.0951 22.0154L21.889 28.5328C22.014 28.8251 22.2986 28.9998 22.5982 28.9998C22.6999 28.9998 22.803 28.9793 22.9015 28.9373C23.2938 28.77 23.4757 28.3157 23.3075 27.9244L20.4916 21.3572C22.4477 20.2636 23.9665 18.6066 24.7874 16.5656C26.0941 16.1789 27.0975 15.4989 27.1262 14.7126C27.1572 13.784 26.6387 13.2394 25.4583 12.9813ZM3.16184 14.8581C3.13949 14.4357 3.20471 14.1895 3.58006 14.0303C3.63251 14.5498 3.73422 15.0487 3.86512 15.534C3.44278 15.3698 3.17598 15.1454 3.16184 14.8581ZM25.1309 15.534C25.2622 15.0487 25.3639 14.5493 25.4164 14.0303C25.7908 14.1895 25.8565 14.4357 25.8341 14.8581C25.8196 15.1454 25.5527 15.3698 25.1309 15.534Z"/><path d="M23.1535 11.8888C23.1535 11.5298 22.4023 11.1034 21.0464 10.7559L21.0824 13.013C22.4151 12.6668 23.1535 12.245 23.1535 11.8888Z"/><path d="M20.0559 13.2393L20.0134 10.5297C19.405 10.4166 18.7186 10.3194 17.9561 10.2446L17.9966 13.528C18.761 13.4527 19.4484 13.3542 20.0559 13.2393Z"/><path d="M16.9699 13.6123L16.9266 10.1639C16.2826 10.1228 15.5971 10.0978 14.8696 10.0923L14.9134 13.6858C15.6409 13.6798 16.3264 13.6543 16.9699 13.6123Z"/></g><defs><clipPath id="clip0"><path fill="#fff" d="M0 0H29V29H0z"/></clipPath></defs></svg>