<svg width="22" height="21" viewBox="0 0 22 21" fill="none" xmlns="http://www.w3.org/2000/svg"><path d="M7.89454 11.585C7.89454 11.322 7.68116 11.1088 7.41788 11.1088H5.75454C5.49156 11.1088 5.27814 11.322 5.27814 11.585V13.2482C5.27814 13.5116 5.49156 13.7248 5.75454 13.7248H7.41788C7.68116 13.7248 7.89454 13.5116 7.89454 13.2482V11.585Z" fill="#CDCDCD"/><path d="M12.0515 11.585C12.0515 11.322 11.8381 11.1088 11.5753 11.1088H9.91173C9.64875 11.1088 9.43533 11.322 9.43533 11.585V13.2482C9.43533 13.5116 9.64875 13.7248 9.91173 13.7248H11.5753C11.8381 13.7248 12.0515 13.5116 12.0515 13.2482V11.585Z" fill="#CDCDCD"/><path d="M16.2086 11.585C16.2086 11.322 15.9951 11.1088 15.7322 11.1088H14.0688C13.8055 11.1088 13.5922 11.322 13.5922 11.585V13.2482C13.5922 13.5116 13.8055 13.7248 14.0688 13.7248H15.7322C15.9951 13.7248 16.2086 13.5116 16.2086 13.2482V11.585Z" fill="#CDCDCD"/><path d="M7.89454 15.7425C7.89454 15.479 7.68116 15.266 7.41788 15.266H5.75454C5.49156 15.266 5.27814 15.479 5.27814 15.7425V17.4053C5.27814 17.6685 5.49156 17.8817 5.75454 17.8817H7.41788C7.68116 17.8817 7.89454 17.6685 7.89454 17.4053V15.7425Z" fill="#CDCDCD"/><path d="M12.0515 15.7425C12.0515 15.479 11.8381 15.266 11.5753 15.266H9.91173C9.64875 15.266 9.43533 15.479 9.43533 15.7425V17.4053C9.43533 17.6685 9.64875 17.8817 9.91173 17.8817H11.5753C11.8381 17.8817 12.0515 17.6685 12.0515 17.4053V15.7425Z" fill="#CDCDCD"/><path d="M16.2086 15.7425C16.2086 15.479 15.9951 15.266 15.7324 15.266H14.0688C13.8055 15.266 13.5922 15.479 13.5922 15.7425V17.4053C13.5922 17.6685 13.8055 17.8817 14.0688 17.8817H15.7324C15.9951 17.8817 16.2086 17.6685 16.2086 17.4053V15.7425Z" fill="#CDCDCD"/><path d="M19.1828 2.33818V4.87848C19.1828 6.02667 18.2513 6.95193 17.1033 6.95193H15.7915C14.6434 6.95193 13.6996 6.02667 13.6996 4.87848V2.32906H7.78701V4.87848C7.78701 6.02667 6.84325 6.95193 5.69532 6.95193H4.38327C3.2353 6.95193 2.30388 6.02667 2.30388 4.87848V2.33818C1.30054 2.36843 0.476074 3.19866 0.476074 4.21912V19.1065C0.476074 20.1461 1.31874 21 2.35839 21H19.1282C20.1663 21 21.0105 20.1444 21.0105 19.1065V4.21912C21.0105 3.19866 20.1861 2.36843 19.1828 2.33818ZM18.5735 18.1794C18.5735 18.6287 18.2092 18.9932 17.7597 18.9932H3.69104C3.24158 18.9932 2.87729 18.6287 2.87729 18.1794V10.4895C2.87729 10.0401 3.24153 9.67558 3.69104 9.67558H17.7597C18.2091 9.67558 18.5734 10.0401 18.5734 10.4895L18.5735 18.1794Z" fill="#CDCDCD"/><path d="M4.37874 5.59015H5.67629C6.07013 5.59015 6.38946 5.27129 6.38946 4.87745V0.71296C6.38946 0.319075 6.07013 0 5.67629 0H4.37874C3.98485 0 3.66556 0.319075 3.66556 0.71296V4.87745C3.66556 5.27129 3.98485 5.59015 4.37874 5.59015Z" fill="#CDCDCD"/><path d="M15.7751 5.59015H17.0726C17.4662 5.59015 17.7855 5.27129 17.7855 4.87745V0.71296C17.7856 0.319075 17.4662 0 17.0726 0H15.7751C15.3813 0 15.0619 0.319075 15.0619 0.71296V4.87745C15.0619 5.27129 15.3813 5.59015 15.7751 5.59015Z" fill="#CDCDCD"/></svg>