<svg width="25" height="25" viewBox="0 0 25 25" fill="none" xmlns="http://www.w3.org/2000/svg"><path d="M17.3204 4.03752C16.6896 4.17938 16.2251 4.40031 15.8739 4.65583C14.3302 4.22739 12.5415 4.0549 10.8516 4.2207C12.5666 2.28354 14.9481 2.04807 17.3889 2.89948C17.9761 3.10433 17.8988 3.92091 17.3204 4.03752Z" fill="#A3E440"/><path d="M19.8259 14.6901C18.654 13.6674 17.3187 13.4334 15.8569 13.9948C14.4991 14.533 12.2786 15.1686 10.2537 15.4949C10.3997 15.2652 10.4009 15.2637 10.4109 15.2466C10.9571 14.2972 12.1549 11.8335 11.4838 9.46636C11.0882 8.07138 10.1219 6.94907 8.61161 6.13052C8.59926 6.1236 8.6015 6.12486 8.3564 5.99075C10.1993 5.29345 12.2934 5.19257 14.2293 5.50404C15.9812 5.78429 16.895 6.22626 17.7531 6.79337C21.9252 9.54743 23.1176 13.282 22.3487 16.4168C22.3486 16.4171 22.3485 16.4174 22.3484 16.4177C21.447 20.0884 17.6786 22.3868 17.5186 22.4829C17.4288 22.5368 17.3256 22.567 17.2101 22.567C17.0448 22.567 16.0072 22.5321 15.287 21.6838C14.6505 20.934 14.4693 19.8179 14.7487 18.3666C14.8195 17.9985 15.2168 17.7856 15.5659 17.9384C15.5756 17.9427 16.5543 18.3645 17.7477 18.3197C19.1815 18.2657 20.3087 17.5753 21.1024 16.2665C20.8977 15.9106 20.4685 15.2509 19.8259 14.6901Z" fill="#A3E440"/><path d="M2.43933 14.3017C2.95808 10.9216 4.43798 8.14981 7.0437 6.62158C8.41804 7.3736 7.94395 7.11439 8.04657 7.17037C9.26875 7.83193 10.0435 8.71425 10.3493 9.7928C10.8955 11.7192 9.86967 13.8243 9.39515 14.6519L8.73336 15.6929C6.7616 15.8727 4.71564 15.7641 2.98729 15.024C2.7817 14.9359 2.6354 14.8846 2.52468 14.7111C2.44707 14.5893 2.41684 14.4441 2.43933 14.3017ZM6.83064 11.209C7.17089 11.209 7.42539 10.9373 7.42539 10.6193C7.42539 10.3007 7.17042 10.0295 6.83064 10.0295C6.50494 10.0295 6.24088 10.2935 6.24088 10.6193C6.24088 10.945 6.50494 11.209 6.83064 11.209Z" fill="#A3E440"/></svg>