<svg width="17" height="17" viewBox="0 0 17 17" fill="none" xmlns="http://www.w3.org/2000/svg"><path d="M10.3847 3.69578C11.1067 3.83663 11.7702 4.18971 12.2903 4.70982C12.8104 5.22993 13.1634 5.89341 13.3043 6.61534L10.3847 3.69578ZM10.3847 0.739258C11.8846 0.905885 13.2833 1.57756 14.3511 2.644C15.4189 3.71044 16.0923 5.10826 16.2608 6.60795L10.3847 0.739258ZM15.5217 12.5062V14.7236C15.5225 14.9295 15.4804 15.1332 15.3979 15.3218C15.3154 15.5104 15.1945 15.6797 15.0428 15.8189C14.8911 15.9581 14.712 16.064 14.517 16.13C14.322 16.1959 14.1154 16.2204 13.9104 16.2019C11.636 15.9547 9.45121 15.1775 7.53169 13.9327C5.74582 12.7979 4.23172 11.2838 3.09691 9.49795C1.84776 7.56971 1.07039 5.37434 0.827777 3.08969C0.809306 2.8853 0.833597 2.6793 0.899103 2.48481C0.964609 2.29031 1.06989 2.11159 1.20826 1.96002C1.34662 1.80845 1.51502 1.68735 1.70275 1.60443C1.89048 1.52151 2.09342 1.47858 2.29865 1.47839H4.51604C4.87474 1.47486 5.22249 1.60188 5.49447 1.83578C5.76645 2.06968 5.94409 2.3945 5.9943 2.74969C6.08789 3.45931 6.26146 4.15606 6.51169 4.82665C6.61114 5.0912 6.63266 5.37872 6.57371 5.65513C6.51476 5.93154 6.37781 6.18525 6.17908 6.38621L5.24039 7.32491C6.29258 9.17536 7.82472 10.7075 9.67517 11.7597L10.6139 10.821C10.8148 10.6223 11.0685 10.4853 11.345 10.4264C11.6214 10.3674 11.9089 10.3889 12.1734 10.4884C12.844 10.7386 13.5408 10.9122 14.2504 11.0058C14.6094 11.0564 14.9373 11.2373 15.1717 11.5139C15.4061 11.7906 15.5307 12.1437 15.5217 12.5062Z" fill="#72E240" stroke="#72E240" stroke-linecap="round" stroke-linejoin="round"/></svg>