<svg width="25" height="25" viewBox="0 0 25 25" fill="none" xmlns="http://www.w3.org/2000/svg"><g clip-path="url(#clip0)" fill="#A3E440"><path d="M14.5034 21.7683C15.6108 20.6611 15.6109 18.8686 14.5034 17.7612C13.396 16.6538 11.6037 16.6538 10.4963 17.7612C9.38898 18.8685 9.38886 20.661 10.4963 21.7683C11.6037 22.8757 13.396 22.8758 14.5034 21.7683Z"/><path d="M8.22786 15.5541C10.5831 13.1989 14.4154 13.1989 16.7707 15.5541C16.9472 15.7307 17.1787 15.819 17.4101 15.819C18.2084 15.819 18.6209 14.8466 18.0495 14.2753C14.989 11.2149 10.0094 11.2149 6.94895 14.2753C6.59579 14.6284 6.59579 15.201 6.94895 15.5542C7.30211 15.9073 7.87471 15.9073 8.22786 15.5541Z"/><path d="M21.3236 11.0003C16.458 6.13466 8.54092 6.13466 3.67527 11.0003C3.32211 11.3534 3.32211 11.926 3.67527 12.2792C4.02837 12.6324 4.60091 12.6323 4.95412 12.2792C9.11467 8.11868 15.8843 8.11868 20.0448 12.2792C20.3979 12.6324 20.9705 12.6323 21.3236 12.2792C21.6768 11.926 21.6768 11.3534 21.3236 11.0003Z"/><path d="M1.54421 8.80901C7.68756 2.66572 17.3121 2.66572 23.4554 8.80901C23.632 8.98559 23.8635 9.07391 24.0948 9.07391C24.8932 9.07391 25.3056 8.10149 24.7342 7.53022C17.8966 0.692429 7.10833 0.687184 0.265356 7.53016C-0.087801 7.88326 -0.087801 8.45586 0.265356 8.80901C0.618513 9.16217 1.19111 9.16217 1.54421 8.80901Z"/></g><defs><clipPath id="clip0"><path fill="#fff" d="M0 0H25V25H0z"/></clipPath></defs></svg>