<svg width="19" height="19" viewBox="0 0 19 19" fill="none" xmlns="http://www.w3.org/2000/svg">
<path d="M13.3043 0H4.93805C2.21516 0 0 2.21516 0 4.93805V13.3045C0 16.0272 2.21516 18.2424 4.93805 18.2424H13.3045C16.0272 18.2424 18.2424 16.0272 18.2424 13.3045V4.93805C18.2424 2.21516 16.0272 0 13.3043 0V0ZM9.12119 14.1092C6.37075 14.1092 4.13318 11.8716 4.13318 9.12119C4.13318 6.37075 6.37075 4.13318 9.12119 4.13318C11.8716 4.13318 14.1092 6.37075 14.1092 9.12119C14.1092 11.8716 11.8716 14.1092 9.12119 14.1092ZM14.2285 5.30952C13.4157 5.30952 12.7546 4.64842 12.7546 3.83562C12.7546 3.02282 13.4157 2.36158 14.2285 2.36158C15.0413 2.36158 15.7025 3.02282 15.7025 3.83562C15.7025 4.64842 15.0413 5.30952 14.2285 5.30952Z" fill="#1F993F"/>
<path d="M9.12169 6.51562C7.68477 6.51562 6.51562 7.68467 6.51562 9.12169C6.51562 10.5586 7.68477 11.7277 9.12169 11.7277C10.5587 11.7277 11.7277 10.5586 11.7277 9.12169C11.7277 7.68467 10.5587 6.51562 9.12169 6.51562Z" fill="#1F993F"/>
</svg>
