<svg width="19" height="19" viewBox="0 0 19 19" fill="none" xmlns="http://www.w3.org/2000/svg">
<path fill-rule="evenodd" clip-rule="evenodd" d="M5.75781 0C2.99639 0 0.757812 2.23857 0.757812 5V13.2424C0.757812 16.0038 2.99639 18.2424 5.75781 18.2424H14.0002C16.7617 18.2424 19.0002 16.0038 19.0002 13.2424V5C19.0002 2.23858 16.7617 0 14.0002 0H5.75781ZM14.1764 9.05508C14.0261 9.29968 13.9658 9.42142 14.1764 9.69505C14.1922 9.71749 14.272 9.79987 14.3927 9.92439C14.9025 10.4506 16.1416 11.7296 16.3607 12.4191C16.4791 12.8246 16.2733 13.0301 15.8672 13.0301H14.4425C14.0623 13.0301 13.8706 12.8148 13.4556 12.349C13.2792 12.1509 13.0623 11.9075 12.7735 11.6161C11.9265 10.7924 11.5638 10.6852 11.3531 10.6852C10.9672 10.6852 10.9681 10.7963 10.9772 11.8295C10.9788 12.0128 10.9807 12.2252 10.9807 12.4711C10.9807 12.8246 10.8699 13.0301 9.96263 13.0301C8.45323 13.0301 6.79398 12.1047 5.61579 10.397C3.84795 7.8952 3.36364 6.00152 3.36364 5.62066C3.36364 5.40511 3.44562 5.21244 3.85229 5.21244H5.27753C5.64293 5.21244 5.7803 5.37327 5.92092 5.77144C6.61752 7.82372 7.79301 9.61687 8.27732 9.61687C8.4592 9.61687 8.54119 9.53143 8.54119 9.06681V6.9464C8.5083 6.34225 8.29965 6.08107 8.14512 5.88763C8.04969 5.76817 7.97489 5.67454 7.97489 5.54192C7.97489 5.38277 8.11009 5.21188 8.33758 5.21188H10.5778C10.878 5.21188 10.9796 5.37551 10.9796 5.74185V8.59269C10.9796 8.89816 11.118 9.00538 11.2071 9.00538C11.3879 9.00538 11.541 8.89816 11.8722 8.56365C12.8983 7.406 13.6237 5.62011 13.6237 5.62011C13.7133 5.40455 13.8805 5.21188 14.2432 5.21188H15.6679C16.0985 5.21188 16.1875 5.43638 16.0985 5.74185L16.0974 5.7424C15.9182 6.58062 14.1792 9.05229 14.1764 9.05508Z" fill="#1F993F"/>
</svg>
